<svg xmlns="http://www.w3.org/2000/svg" xmlns:xlink="http://www.w3.org/1999/xlink" width="800" zoomAndPan="magnify" viewBox="0 0 600 599.999999" height="800" preserveAspectRatio="xMidYMid meet" version="1.0"><path fill="#004aad" d="M 600 300 C 600 134 466 0 300 0 C 134 0 0 134 0 300 C 0 466 134 600 300 600 C 466 600 600 466 600 300 Z M 484.667969 292.667969 C 484.667969 293.332031 485.332031 293.332031 485.332031 294 C 486.667969 296 486.667969 298 486.667969 300 C 486.667969 302 486 304 485.332031 306 C 485.332031 306.667969 484.667969 306.667969 484.667969 307.332031 C 484 308.667969 483.332031 310 482 310.667969 C 482 310.667969 482 310.667969 481.332031 311.332031 L 372 404.667969 C 366 410 356.667969 409.332031 351.332031 403.332031 C 346 397.332031 346.667969 388 352.667969 382.667969 L 432 315.332031 L 128 315.332031 C 120 315.332031 113.332031 308.667969 113.332031 300.667969 C 113.332031 292.667969 120 286 128 286 L 432 286 L 353.332031 218 C 347.332031 212.667969 346.667969 203.332031 352 197.332031 C 354.667969 194 359.332031 192 363.332031 192 C 366.667969 192 370 193.332031 372.667969 195.332031 L 482 288.667969 C 482 288.667969 482 288.667969 482.667969 289.332031 C 483.332031 290 484 291.332031 484.667969 292.667969 Z M 484.667969 292.667969 " fill-opacity="1" fill-rule="nonzero"/></svg>