<svg xmlns="http://www.w3.org/2000/svg" xmlns:xlink="http://www.w3.org/1999/xlink" width="800" zoomAndPan="magnify" viewBox="0 0 600 599.999999" height="800" preserveAspectRatio="xMidYMid meet" version="1.0"><path fill="#0000ff" d="M 300 0 C 465.683594 0 600 134.3125 600 300 C 600 465.683594 465.683594 600 300 600 C 134.3125 600 0 465.683594 0 300 C 0 134.3125 134.3125 0 300 0 " fill-opacity="1" fill-rule="evenodd"/><path fill="#ffffff" d="M 285.121094 354.089844 C 269.289062 329.820312 259.929688 305.558594 254.898438 287.574219 C 250.304688 289.351562 244.851562 290.96875 238.941406 292.589844 C 224.015625 324.96875 227.207031 370.988281 239.648438 402.792969 C 249.546875 402.050781 257.957031 409.832031 257.957031 419.691406 C 257.957031 429.050781 250.34375 436.640625 240.945312 436.640625 C 225.917969 436.640625 218.386719 418.621094 228.683594 407.949219 C 215.8125 375.507812 212.195312 330.886719 224.300781 296.507812 C 201.554688 302.640625 177.03125 310.363281 168.878906 326.808594 C 154.105469 356.460938 148.375 449.320312 148.421875 486.320312 L 451.578125 486.320312 C 451.621094 449.003906 446.082031 356.84375 431.121094 326.808594 C 423.46875 311.382812 401.417969 303.628906 379.945312 297.667969 C 381.769531 309.527344 380.710938 322.234375 377.792969 334.945312 C 393.074219 341.152344 402.523438 356.429688 399.464844 375.800781 C 395.308594 402.109375 401.039062 449.53125 367.183594 441.953125 C 359.40625 440.210938 362.058594 428.429688 369.839844 430.175781 C 377.492188 431.886719 380.894531 426.703125 382.707031 418.660156 C 385.292969 407.203125 385.328125 387.71875 387.503906 373.960938 C 392.585938 341.785156 349.410156 332.054688 340.179688 363.339844 C 336.285156 376.53125 327.917969 394.195312 325.296875 405.804688 C 323.484375 413.847656 324.328125 419.980469 331.976562 421.695312 C 339.757812 423.4375 337.105469 435.214844 329.324219 433.46875 C 295.507812 425.898438 320.960938 385.644531 328.550781 359.933594 C 334.148438 340.964844 349.464844 331.238281 365.96875 332.253906 C 368.96875 319.222656 369.921875 306.050781 366.882812 294.15625 C 358.738281 291.996094 351.171875 289.921875 345.097656 287.574219 C 340.640625 303.859375 330.191406 329.628906 314.570312 354.066406 L 309.003906 323.074219 L 313.164062 313.085938 L 299.847656 301.9375 L 286.535156 313.085938 L 290.695312 323.074219 Z M 371.78125 179.925781 C 375.277344 179.292969 378.535156 179.886719 379.601562 183.710938 C 383.242188 196.726562 371.664062 214.871094 360.925781 213.777344 C 329.855469 292.34375 270.132812 292.34375 239.0625 213.777344 C 228.472656 214.835938 216.746094 196.726562 220.386719 183.710938 C 221.445312 179.890625 224.691406 179.292969 228.179688 179.921875 C 225.054688 166.25 223.445312 149.339844 226.421875 135.601562 C 239.164062 76.835938 344.296875 66.652344 350.144531 104.234375 C 378.546875 113.683594 380 144.34375 371.78125 179.925781 Z M 371.78125 179.925781 " fill-opacity="1" fill-rule="evenodd"/></svg>